<?xml version="1.0" encoding="utf-8"?>
<!-- Generator: Adobe Illustrator 20.0.0, SVG Export Plug-In . SVG Version: 6.00 Build 0)  -->
<svg version="1.1" id="Layer_1" xmlns="http://www.w3.org/2000/svg" xmlns:xlink="http://www.w3.org/1999/xlink" x="0px" y="0px"
	 viewBox="0 0 711.5 210" style="enable-background:new 0 0 711.5 210;" xml:space="preserve">
<style type="text/css">
	.st0{fill:url(#SVGID_1_);}
	.st1{fill:#FFFFFF;}
</style>
<title>Main Logo copy</title>
<linearGradient id="SVGID_1_" gradientUnits="userSpaceOnUse" x1="0" y1="104.745" x2="88.4501" y2="104.745" gradientTransform="matrix(1 0 0 -1 0 210)">
	<stop  offset="0" style="stop-color:#E6E2DF"/>
	<stop  offset="0" style="stop-color:#DCD9D7"/>
	<stop  offset="0.15" style="stop-color:#CCCCCC"/>
	<stop  offset="0.26" style="stop-color:#BCBEC0"/>
	<stop  offset="0.27" style="stop-color:#BDBFC1"/>
	<stop  offset="0.37" style="stop-color:#D4D5D7"/>
	<stop  offset="0.46" style="stop-color:#E1E2E4"/>
	<stop  offset="0.55" style="stop-color:#E6E7E8"/>
	<stop  offset="0.62" style="stop-color:#E0E1E2"/>
	<stop  offset="0.83" style="stop-color:#BCBDC0"/>
	<stop  offset="1" style="stop-color:#D1D3D4"/>
	<stop  offset="1" style="stop-color:#A7A9AC"/>
</linearGradient>
<path class="st0" d="M88.4,160L0,159.9L0.1,50.5l88.4,0.1v20.6c0,12-3.2,23.7-9.2,34.1c6,10.3,9.2,22.1,9.1,34.1L88.4,160z
	 M3.4,156.6l81.7,0.1v-17.3c0-10.8-2.7-21.4-7.8-30.9c-2.5,3.8-5.4,7.3-8.7,10.6c-12.7,12.7-29.9,19.9-47.9,19.8H3.4V156.6z
	 M3.4,135.5h17.3c22.2,0,42.8-11.5,54.6-30.3c-2.6-4.1-5.6-8-9.1-11.4c-12-12.1-28.4-18.9-45.5-18.9H3.4L3.4,135.5z M3.4,71.5h17.3
	c18,0,35.2,7.1,47.9,19.9c3.2,3.2,6.1,6.8,8.6,10.6c5.2-9.4,7.9-20,7.9-30.8V53.9L3.4,53.9L3.4,71.5z"/>
<path class="st1" d="M112.1,83.2h1.1v16.7h0.1c2.3-3.1,6-4.9,9.9-4.8c7.9,0.2,14.1,6.8,13.9,14.6c-0.2,7.6-6.3,13.7-13.9,13.9
	c-3.9,0.1-7.5-1.7-9.9-4.8h-0.1v4.2h-1.1V83.2z M113.2,101.6v15.6c2.1,3.4,5.9,5.5,10,5.4c7.3-0.3,13-6.4,12.7-13.7
	c-0.3-6.9-5.8-12.4-12.7-12.7C119.1,96,115.3,98.1,113.2,101.6L113.2,101.6z"/>
<path class="st1" d="M144.8,108.8c0,8.6,6.1,13.8,14.3,13.8c3.7,0,7.2-1.3,10.1-3.6l0.6,0.8c-3,2.5-6.8,3.8-10.7,3.8
	c-8.8,0-15.4-5.8-15.4-14.3c0-8.9,6.5-14.3,14.4-14.3c8.1,0,12.2,5.3,12.2,11.5c0,0.8-0.1,2.2-0.1,2.2L144.8,108.8z M144.9,107.8
	h24.2c0.6-6.2-3.2-11.7-11-11.7C151.3,96.1,145.6,100.5,144.9,107.8L144.9,107.8z"/>
<path class="st1" d="M179.2,83.2h1.1v35c0,2.7,1.2,3.7,2.6,3.7c0.2,0,0.4,0,0.5-0.1l0.2,1c-0.2,0.1-0.5,0.1-0.7,0.1
	c-1.9,0-3.6-1.2-3.6-4.7L179.2,83.2z"/>
<path class="st1" d="M193.2,83.2h1.1v35c0,2.7,1.2,3.7,2.6,3.7c0.2,0,0.4,0,0.5-0.1l0.2,1c-0.2,0.1-0.5,0.1-0.7,0.1
	c-1.9,0-3.6-1.2-3.6-4.7L193.2,83.2z"/>
<path class="st1" d="M245.4,95.7h1.2L234.2,123h-1.2l-12.2-27.3h1.2l11.5,25.9h0.1L245.4,95.7z"/>
<path class="st1" d="M255.7,84.8h1.1v4.6h-1.1V84.8z M255.7,95.7h1.1V123h-1.1V95.7z"/>
<path class="st1" d="M269.2,123V95.7h1.1v5h0.1c1.2-2.2,4.6-5.2,8.5-5.2c1-0.1,1.9,0.1,2.8,0.4l-0.2,1c-0.8-0.3-1.7-0.4-2.6-0.3
	c-3.8,0.2-7.2,2.5-8.7,6V123H269.2z"/>
<path class="st1" d="M285.2,96.7v-1h5.4v-9.6h1.1v9.6h6.1v1h-6.1V118c0,3.9,2.5,4.1,4.5,4.1c0.7,0,1.4-0.1,2.1-0.2l0.2,1
	c-0.8,0.1-1.5,0.2-2.3,0.2c-2.5,0-5.5-0.2-5.5-5.2V96.7H285.2z"/>
<path class="st1" d="M329.9,95.7V123h-1.1v-4.7h-0.1c-1.8,2.9-6,5.4-10.5,5.4c-8.3,0-12.4-4.5-12.4-11.2V95.7h1.1v16.7
	c0,6.2,3.7,10.2,11.3,10.2c5.1,0,9.4-3.1,10.6-6.3V95.7H329.9z"/>
<path class="st1" d="M363.8,122.9c-0.2,0-0.5,0.1-0.7,0.1c-1.8,0-3.6-1.1-3.7-4.6h-0.1c-2.9,2.9-6.7,5.2-11.3,5.2
	c-5,0-10.6-1.8-10.6-7.6c0-7.5,10.5-8.6,21.8-8.7v-2.4c0-5.9-4.2-8.8-9.5-8.8c-4.3,0-7.9,1.5-9.9,3.6L339,99c2.9-2.6,6.7-4,10.7-3.9
	c5.8,0,10.6,3.3,10.6,9.9v13.2c0,2.8,1.4,3.8,2.8,3.8c0.2,0,0.4,0,0.5-0.1L363.8,122.9z M359.1,117.1v-8.7
	c-10.7,0.1-20.7,1-20.7,7.6c0,5,5.1,6.5,9.5,6.5C352.5,122.6,356.3,120.1,359.1,117.1L359.1,117.1z"/>
<path class="st1" d="M371.7,83.2h1.1v35c0,2.7,1.2,3.7,2.6,3.7c0.2,0,0.4,0,0.5-0.1l0.2,1c-0.2,0.1-0.5,0.1-0.7,0.1
	c-1.9,0-3.7-1.2-3.7-4.7L371.7,83.2z"/>
<path class="st1" d="M419.6,98.8c-2.1-1.8-4.8-2.8-7.5-2.7c-5,0-8.7,2.4-8.7,5.9c0,3.9,4.2,5.3,8.3,6.6c4.6,1.5,9.5,3,9.5,8.2
	c0,3.7-3.3,6.8-9.5,6.8c-3.7,0.1-7.3-1.4-10-4l0.8-0.7c2.5,2.4,5.8,3.7,9.3,3.7c5.4,0,8.4-2.6,8.4-5.8c0-4.5-4.4-5.8-8.7-7.2
	c-4.6-1.4-9.1-2.8-9.1-7.6c0-4.1,4.3-7,9.8-7c3-0.1,6,1,8.3,3L419.6,98.8z"/>
<path class="st1" d="M442,123.6c-8.4,0-14.4-6.1-14.4-14.3s6-14.3,14.4-14.3s14.5,6.1,14.5,14.3S450.5,123.6,442,123.6z M442,96.1
	c-7.3,0-13.2,5.9-13.2,13.2c0,7.3,5.9,13.2,13.2,13.2c7.8,0,13.4-5.7,13.4-13.2S449.8,96.1,442,96.1z"/>
<path class="st1" d="M465.5,83.2h1.1v35c0,2.7,1.2,3.7,2.6,3.7c0.2,0,0.4,0,0.5-0.1l0.2,1c-0.2,0.1-0.5,0.1-0.7,0.1
	c-1.8,0-3.7-1.2-3.7-4.7L465.5,83.2z"/>
<path class="st1" d="M502.9,95.7V123h-1.1v-4.7h-0.1c-1.8,2.9-6,5.4-10.5,5.4c-8.3,0-12.4-4.5-12.4-11.2V95.7h1.1v16.7
	c0,6.2,3.7,10.2,11.3,10.2c5.1,0,9.4-3.1,10.6-6.3V95.7H502.9z"/>
<path class="st1" d="M510.9,96.7v-1h5.4v-9.6h1.1v9.6h6.1v1h-6.1V118c0,3.9,2.5,4.1,4.5,4.1c0.7,0,1.4-0.1,2.1-0.2l0.2,1
	c-0.8,0.1-1.5,0.2-2.3,0.2c-2.5,0-5.5-0.2-5.5-5.2V96.7H510.9z"/>
<path class="st1" d="M532.2,84.8h1.1v4.6h-1.1V84.8z M532.2,95.7h1.1V123h-1.1V95.7z"/>
<path class="st1" d="M556.7,123.6c-8.4,0-14.4-6.1-14.4-14.3s6-14.3,14.4-14.3s14.5,6.1,14.5,14.3S565.2,123.6,556.7,123.6z
	 M556.7,96.1c-7.3,0-13.2,5.9-13.2,13.2c0,7.3,5.9,13.2,13.2,13.2c7.8,0,13.4-5.7,13.4-13.2S564.6,96.1,556.7,96.1z"/>
<path class="st1" d="M579.1,123V95.7h1.1v4.7h0.1c1.8-2.9,6-5.4,10.5-5.4c8.3,0,12.4,4.5,12.4,11.2V123H602v-16.7
	c0-6.2-3.7-10.2-11.3-10.2c-5.1,0-9.4,3.1-10.6,6.3V123H579.1z"/>
<path class="st1" d="M629.4,98.8c-2.1-1.8-4.8-2.8-7.5-2.7c-5,0-8.7,2.4-8.7,5.9c0,3.9,4.2,5.3,8.3,6.6c4.6,1.5,9.5,3,9.5,8.2
	c0,3.7-3.3,6.8-9.5,6.8c-3.7,0.1-7.3-1.4-10-4l0.8-0.7c2.5,2.4,5.8,3.7,9.3,3.7c5.4,0,8.4-2.6,8.4-5.8c0-4.5-4.4-5.8-8.7-7.2
	c-4.6-1.4-9.1-2.8-9.1-7.6c0-4.1,4.3-7,9.8-7c3-0.1,6,1,8.3,3L629.4,98.8z"/>
</svg>
