<svg id="Layer_1" data-name="Layer 1" xmlns="http://www.w3.org/2000/svg" viewBox="0 0 36 36"><defs><style>.cls-1{fill:#fff;}</style></defs><title>Character</title><path class="cls-1" d="M18,3.73A8.55,8.55,0,0,1,26.45,11a14.24,14.24,0,0,1-5.28-4,9.27,9.27,0,0,1-.86-1.18,7.39,7.39,0,0,1-1,1.07,14.21,14.21,0,0,1-9.75,4A8.56,8.56,0,0,1,18,3.73M13.27,19.43a8.55,8.55,0,0,1-3.83-7.13A15.62,15.62,0,0,0,20.17,8a15.61,15.61,0,0,0,6.37,4.58,8.55,8.55,0,0,1-3.81,6.82H26.9a11.41,11.41,0,1,0-17.8,0Z"/><path class="cls-1" d="M32.26,32.27H3.73V29.41a5.71,5.71,0,0,1,5.71-5.71H26.55a5.71,5.71,0,0,1,5.71,5.71ZM26.55,20.85H9.43A8.56,8.56,0,0,0,.87,29.41v4.28A1.43,1.43,0,0,0,2.3,35.12H33.69a1.43,1.43,0,0,0,1.43-1.43V29.41a8.56,8.56,0,0,0-8.56-8.56"/></svg>