<svg id="Layer_1" data-name="Layer 1" xmlns="http://www.w3.org/2000/svg" viewBox="0 0 36 36"><defs><style>.cls-1{fill:#58595b;}</style></defs><title>Cost</title><path class="cls-1" d="M18,34.31A16.38,16.38,0,0,1,18,1.56a16.38,16.38,0,0,1,0,32.76ZM18,3.06a14.88,14.88,0,0,0,0,29.76A14.88,14.88,0,0,0,18,3.06Z"/><path class="cls-1" d="M17.05,25.93h2V24.29a3.73,3.73,0,0,0,3.34-3.65c0-2.61-2.12-3.4-4-4.21-1.31-.56-2.51-.94-2.51-2.26,0-1.1,1.07-1.83,2.41-1.83a3.94,3.94,0,0,1,2.61.89l1.29-1.39a5.54,5.54,0,0,0-3.09-1.33V8.93h-2v1.66c-2,.39-3.4,1.72-3.4,3.59,0,2.47,1.82,3.18,3.92,4,1.21.52,2.63,1,2.63,2.43,0,1.12-.93,1.89-2.32,1.89a5.24,5.24,0,0,1-3.32-1.23c-.42.44-.87.89-1.31,1.33a6.32,6.32,0,0,0,3.8,1.74Z"/></svg>