<svg id="Layer_1" data-name="Layer 1" xmlns="http://www.w3.org/2000/svg" viewBox="0 0 36 36"><defs><style>.cls-1{fill:#fff;}</style></defs><title>Partnership</title><path class="cls-1" d="M25,10.94a1.41,1.41,0,0,0-2,0l-12,12a1.41,1.41,0,0,0,2,2l12-12a1.42,1.42,0,0,0,0-2"/><path class="cls-1" d="M13,32.92l5-5a7.06,7.06,0,0,0,1.58-7.57l-2.35,2.35A4.21,4.21,0,0,1,16,25.93l-5,5a4.24,4.24,0,1,1-6-6l5-5a4.22,4.22,0,0,1,3.22-1.22l2.35-2.35A7.06,7.06,0,0,0,8,17.94l-5,5a7.06,7.06,0,0,0,10,10"/><path class="cls-1" d="M20,9.94l5-5a4.24,4.24,0,0,1,6,6l-5,5a4.21,4.21,0,0,1-3.22,1.22l-2.36,2.36A7.07,7.07,0,0,0,28,17.94l5-5A7.07,7.07,0,0,0,23,3l-5,5a7.07,7.07,0,0,0-1.58,7.57l2.35-2.36A4.22,4.22,0,0,1,20,9.94"/></svg>