<svg id="Layer_1" data-name="Layer 1" xmlns="http://www.w3.org/2000/svg" viewBox="0 0 36 36"><defs><style>.cls-1{fill:#58595b;}</style></defs><title>Productivity</title><path class="cls-1" d="M17.47,19.59H23.3a.73.73,0,1,0,0-1.46H18.2V11.58a.73.73,0,1,0-1.46,0v7.29a.73.73,0,0,0,.73.73"/><path class="cls-1" d="M26,35H10V25l.68.69a10.36,10.36,0,0,0,14.64.06l.68-.67Zm-15.2-.8h14.4V27a11.16,11.16,0,0,1-14.4-.05ZM10,11.79V.85H26V11.72L25.35,11a10.36,10.36,0,0,0-14.64.06Zm.8-10.14V9.91a11.16,11.16,0,0,1,14.4-.05V1.65Z"/><path class="cls-1" d="M18,29.2A11.26,11.26,0,1,1,29.15,17.94,11.22,11.22,0,0,1,18,29.2Zm0-21a9.76,9.76,0,1,0,9.65,9.75A9.71,9.71,0,0,0,18,8.19Z"/></svg>