<svg id="Layer_1" data-name="Layer 1" xmlns="http://www.w3.org/2000/svg" viewBox="0 0 36 36"><defs><style>.cls-1{fill:#58595b;}</style></defs><title>Professionalism</title><path class="cls-1" d="M14.21,31.62a2.67,2.67,0,0,1-2-.81L1.83,20.39a2.77,2.77,0,0,1,0-3.91l2.85-2.85a2.67,2.67,0,0,1,2-.81,2.67,2.67,0,0,1,2,.81l5.63,5.65L27.41,6a2.77,2.77,0,0,1,3.91,0L34.17,8.9a2.77,2.77,0,0,1,0,3.91l-18,18A2.67,2.67,0,0,1,14.21,31.62ZM6.63,14.32a1.19,1.19,0,0,0-.89.37L2.89,17.54a1.27,1.27,0,0,0,0,1.79L13.32,29.75a1.25,1.25,0,0,0,1.79,0l18-18a1.27,1.27,0,0,0,0-1.79h0L30.26,7.11a1.25,1.25,0,0,0-1.79,0L14.21,21.4,7.52,14.69A1.19,1.19,0,0,0,6.63,14.32Z"/></svg>