<svg id="Layer_1" data-name="Layer 1" xmlns="http://www.w3.org/2000/svg" viewBox="0 0 36 36"><defs><style>.cls-1{fill:#fff;}</style></defs><title>Promise</title><path class="cls-1" d="M17.05,5V18.34H15.64V5.24l-2.81.46V18.34H11.42V5.93l-2.81.46V18.34H7.2V6.62l-2.81.46v19.7A5.63,5.63,0,0,0,10,32.4h8.44c6.33,0,13.1-10.66,13.84-12.66a3.73,3.73,0,0,0,.23-1.4,1.41,1.41,0,0,0-2.4-1l-3.06,2.57a4.22,4.22,0,0,1-7.2-3V4.55Zm5.63-2.15V16.93a1.41,1.41,0,0,0,2.4,1l3.06-2.57a4.22,4.22,0,0,1,7.2,3,5.86,5.86,0,0,1-.88,3.14c-4.39,8.27-11.78,13.75-16,13.75H10a8.44,8.44,0,0,1-8.44-8.44V5.67A1.41,1.41,0,0,1,3,4.27L21.27,1.45a1.41,1.41,0,0,1,1.41,1.41"/></svg>