<svg id="Layer_1" data-name="Layer 1" xmlns="http://www.w3.org/2000/svg" viewBox="0 0 533.99 662" preserveAspectRatio="xMinYMid"><defs><style>.cls-1{fill:#fff;}.cls-1,.cls-2{opacity:0.6;}.cls-2{fill:none;}</style></defs><title>Watermark-Benefits</title><path class="cls-1" d="M28.28,136.33l104.3.08c109.24.09,211.9,42.77,289.08,120.2a413.74,413.74,0,0,1,52.06,63.76A387.51,387.51,0,0,0,521.33,134.1l.09-104.46L28.36,29.25ZM28,523l104.3.08h.32c138.82,0,260.89-73.25,329.68-183.21a392.27,392.27,0,0,0-54.9-69c-73.37-73.6-171-114.18-274.8-114.26l-104.3-.08Zm-.1,127.31,493.05.39L521,546.3a387.82,387.82,0,0,0-47.17-186.58,413.46,413.46,0,0,1-52.32,63.91C344.29,500.85,241.7,543.36,132.59,543.36h-.34l-104.3-.08ZM541.09,671,7.65,670.57,8.18,9l533.45.43-.11,124.69a407.58,407.58,0,0,1-55.51,206A407.63,407.63,0,0,1,541.2,546.31Z" transform="translate(-7.65 -9)"/><rect class="cls-2" width="533.99" height="662"/><path class="cls-2" d="M132.59,543.36c109.11,0,211.71-42.51,288.93-119.73a413.55,413.55,0,0,0,52.32-63.91A387.82,387.82,0,0,1,521,546.3l-.09,104.46-493.05-.39.08-107.08,104.3.08ZM28,523l.3-366.48,104.29.08C236.4,156.72,334,197.3,407.36,270.9a392.31,392.31,0,0,1,54.9,69c-68.79,110-190.86,183.21-329.68,183.21h-.32ZM421.65,256.61c-77.18-77.42-179.84-120.11-289.08-120.2l-104.3-.08.08-107.08,493.06.39-.09,104.46a387.5,387.5,0,0,1-47.61,186.27,413.74,413.74,0,0,0-52.06-63.76M8.18,9,7.65,670.57l533.45.43.11-124.69A407.61,407.61,0,0,0,486,340.17a407.58,407.58,0,0,0,55.51-206l.11-124.69Z" transform="translate(-7.65 -9)"/></svg>